<svg width="57" height="84" viewBox="0 0 57 84" fill="none" xmlns="http://www.w3.org/2000/svg">
<path d="M18.9813 0.789551L16.6616 2.65439C16.1893 3.03202 15.8073 3.51191 15.5438 4.05857C15.2802 4.60523 15.142 5.20466 15.1392 5.8125V6.09344C15.1389 6.70052 15.2739 7.29991 15.5341 7.84736C15.7942 8.3948 16.173 8.87633 16.6424 9.25639L26.2957 17.0645C26.7065 17.3991 27.0477 17.812 27.3 18.2798C27.5523 18.7476 27.7106 19.2609 27.7659 19.7904C27.8213 20.32 27.7725 20.8554 27.6224 21.3659C27.4723 21.8764 27.2238 22.352 26.8913 22.7656L24.3651 25.914C23.8591 26.5344 23.5496 27.2938 23.4766 28.0937L23.3613 29.3143C23.3068 29.9453 23.3992 30.5803 23.631 31.169C23.8627 31.7576 24.2276 32.2835 24.6964 32.7049L42.2934 48.4373C42.6548 48.7581 43.0693 49.0122 43.518 49.1881L44.1664 49.44C44.7543 49.6671 45.3868 49.7521 46.0132 49.6881C46.6395 49.6242 47.2423 49.4131 47.7732 49.0719L48.2535 48.7619C48.777 48.4234 49.2158 47.9676 49.5357 47.4298C49.8556 46.8921 50.048 46.287 50.0977 45.6619L50.1937 44.4461C50.2437 43.8185 50.1478 43.1878 49.9135 42.6042C49.6792 42.0206 49.313 41.5003 48.8442 41.0846L36.4678 30.1183C35.7228 29.4552 35.2477 28.5374 35.1342 27.5418C35.0207 26.5463 35.2767 25.5436 35.853 24.7273L38.6385 20.7699C39.1654 20.0267 39.4262 19.1249 39.3782 18.2125C39.3496 17.6346 39.1986 17.0697 38.9351 16.5558C38.6716 16.0419 38.3019 15.591 37.8509 15.2336L19.6008 0.789551" fill="#575CD4"/>
<path d="M28.5673 40.3909L9.51777 24.4121C7.76193 22.9393 5.15473 23.1809 3.69441 24.9518L2.64413 26.2254C1.18381 27.9963 1.42338 30.6258 3.17922 32.0986L22.2287 48.0774C23.9846 49.5502 26.5918 49.3086 28.0521 47.5377L29.1024 46.2641C30.5627 44.4932 30.3231 41.8637 28.5673 40.3909Z" fill="#575CD4"/>
<path d="M46.2315 16.5849C50.7725 16.5849 54.4537 12.8723 54.4537 8.29247C54.4537 3.71267 50.7725 0 46.2315 0C41.6906 0 38.0094 3.71267 38.0094 8.29247C38.0094 12.8723 41.6906 16.5849 46.2315 16.5849Z" fill="#575CD4"/>
<path d="M2.40733 73.7894V59.8201H5.50504V73.7894H2.40733ZM4.80865 73.7894V71.0575H11.6476V73.7894H4.80865Z" fill="#575CD4"/>
<path d="M17.0602 74.0074C16.1552 74.0219 15.2562 73.8573 14.414 73.523C13.6364 73.205 12.9438 72.7073 12.392 72.0699L14.3948 70.05C14.6722 70.4423 15.0509 70.7506 15.4898 70.9413C15.9641 71.1617 16.4803 71.2757 17.0026 71.2755C17.4281 71.2868 17.8505 71.199 18.2369 71.0188C18.5779 70.8593 18.8699 70.6099 19.0821 70.2971C19.2861 69.9583 19.3939 69.5696 19.3939 69.1733C19.3939 68.777 19.2861 68.3883 19.0821 68.0496C18.8583 67.7284 18.5485 67.478 18.1888 67.3279C17.7552 67.154 17.2914 67.07 16.8249 67.0808C16.5633 67.0832 16.302 67.0994 16.0421 67.1293C15.8083 67.1532 15.5779 67.2036 15.3553 67.2794L16.7288 65.5405C17.1083 65.434 17.4588 65.3419 17.7854 65.2693C18.0885 65.2025 18.3974 65.1668 18.7075 65.1627C19.3793 65.1477 20.0428 65.315 20.6286 65.6471C21.197 65.9879 21.6608 66.4808 21.9685 67.0711C22.321 67.7974 22.4897 68.6004 22.4595 69.4084C22.4294 70.2164 22.2013 71.0043 21.7956 71.7017C21.3327 72.4225 20.6789 72.998 19.9082 73.3631C19.0212 73.7977 18.0462 74.0182 17.0602 74.0074ZM13.2565 62.4841V59.8201H22.1991V61.559L19.7689 62.4841H13.2565ZM15.3553 67.3279V65.5696L18.7171 61.6122H22.1895L18.6979 65.6132L15.3553 67.3279Z" fill="#575CD4"/>
<path d="M24.1057 73.7894V59.4229H27.1458V66.5286L26.6655 68.8439L27.117 71.198V73.7894H24.1057ZM29.6384 73.988C29.0194 73.9964 28.4072 73.857 27.8518 73.5811C27.3367 73.3276 26.8889 72.954 26.5455 72.4912C26.2169 72.0445 26.0175 71.5147 25.9691 70.9606V66.9016C26.0158 66.3514 26.2193 65.8265 26.5551 65.3903C26.9035 64.9431 27.3553 64.5888 27.871 64.3586C28.4278 64.1121 29.0303 63.9883 29.6384 63.9953C30.4842 63.9782 31.3173 64.2051 32.0397 64.6492C32.7401 65.0812 33.3124 65.6952 33.6966 66.4269C34.0944 67.2232 34.3016 68.1024 34.3016 68.9941C34.3016 69.8857 34.0944 70.7649 33.6966 71.5612C33.3113 72.2935 32.7394 72.9088 32.0397 73.3437C31.3161 73.784 30.4832 74.0074 29.6384 73.988ZM29.0669 71.2367C29.4492 71.2425 29.8259 71.1437 30.1571 70.9509C30.4792 70.7578 30.7432 70.4798 30.9207 70.1469C31.1099 69.7874 31.2088 69.3866 31.2088 68.9795C31.2088 68.5725 31.1099 68.1717 30.9207 67.8122C30.7443 67.4797 30.48 67.2031 30.1571 67.013C29.8267 66.8181 29.4494 66.7192 29.0669 66.7272C28.6751 66.7186 28.2883 66.8174 27.9478 67.013C27.6321 67.203 27.3771 67.4804 27.213 67.8122C27.0326 68.1671 26.9419 68.5614 26.9489 68.9602C26.9409 69.3756 27.0349 69.7866 27.2226 70.1566C27.3911 70.4928 27.6531 70.7722 27.9767 70.9606C28.3104 71.1459 28.6859 71.241 29.0669 71.2367Z" fill="#575CD4"/>
<path d="M35.7906 73.7895V64.1747H38.8115V73.7895H35.7906ZM42.1109 73.7895V68.2967C42.1168 68.0747 42.0772 67.8538 41.9946 67.6479C41.9119 67.4421 41.788 67.2556 41.6306 67.1003C41.477 66.9437 41.2936 66.82 41.0914 66.7367C40.8892 66.6535 40.6724 66.6124 40.454 66.6159C40.1593 66.6124 39.8685 66.684 39.6087 66.8242C39.362 66.9609 39.1576 67.1637 39.018 67.4103C38.8696 67.6743 38.795 67.9739 38.8019 68.2773L37.6444 67.7058C37.6302 67.0114 37.8046 66.3263 38.1487 65.7247C38.473 65.1698 38.9457 64.7182 39.5126 64.4217C40.1209 64.0986 40.799 63.9322 41.4865 63.9373C42.1282 63.9258 42.7609 64.0901 43.3174 64.4125C43.8739 64.7349 44.3333 65.2034 44.6467 65.7683C44.9634 66.3254 45.1291 66.9569 45.127 67.5992V73.7507L42.1109 73.7895Z" fill="#575CD4"/>
<path d="M50.9814 73.9881C50.1562 73.9985 49.3456 73.7681 48.6473 73.3245C47.9566 72.8846 47.392 72.2701 47.0096 71.542C46.5989 70.7524 46.3924 69.8711 46.4092 68.9797C46.3953 68.0824 46.6015 67.1955 47.0096 66.398C47.3832 65.668 47.9458 65.0537 48.6377 64.6203C49.3418 64.184 50.1551 63.9605 50.9814 63.9761C51.5813 63.9677 52.1754 64.0952 52.7199 64.3491C53.2182 64.5882 53.6516 64.9455 53.983 65.3905C54.3082 65.8297 54.5001 66.3547 54.5353 66.9017V71.0576C54.5014 71.6048 54.3131 72.1308 53.9926 72.5737C53.6681 73.0203 53.2369 73.3769 52.7391 73.6103C52.1892 73.8691 51.5881 73.9982 50.9814 73.9881ZM51.6105 71.2369C51.8975 71.2485 52.1837 71.1979 52.4497 71.0884C52.7156 70.9789 52.9552 70.8132 53.1522 70.6023C53.5476 70.1507 53.7541 69.5622 53.7285 68.9603C53.7353 68.5596 53.6481 68.1629 53.4739 67.8027C53.3088 67.471 53.0497 67.1962 52.7295 67.0131C52.389 66.8175 52.0023 66.7188 51.6105 66.7273C51.2279 66.7194 50.8506 66.8183 50.5203 67.0131C50.1974 67.2032 49.9331 67.4799 49.7567 67.8123C49.5707 68.1728 49.4735 68.5733 49.4735 68.9797C49.4735 69.3861 49.5707 69.7865 49.7567 70.147C49.9342 70.48 50.1981 70.7579 50.5203 70.9511C50.8515 71.1438 51.2282 71.2426 51.6105 71.2369ZM53.6132 73.7895V71.203L54.0647 68.8489L53.6132 66.5336V64.1795H56.5765V73.7944L53.6132 73.7895Z" fill="#575CD4"/>
<path d="M3.92977 81.176C3.99263 81.238 4.06822 81.2854 4.15121 81.3147C4.2342 81.344 4.32256 81.3545 4.41003 81.3456H4.56372C4.59734 81.3456 4.61655 81.3456 4.62615 81.3746C4.63201 81.3919 4.63201 81.4106 4.62615 81.4279V82.2174C4.63201 82.2347 4.63201 82.2535 4.62615 82.2707C4.62615 82.2707 4.59734 82.2998 4.56372 82.2998H4.08345C3.89292 82.3119 3.70212 82.2807 3.52509 82.2086C3.34806 82.1365 3.1893 82.0253 3.06049 81.8832C2.80997 81.5687 2.68342 81.172 2.70509 80.7692V76.2161H3.77608V80.5754C3.75392 80.7878 3.80849 81.001 3.92977 81.176Z" fill="#575CD4"/>
<path d="M5.62511 81.3746C5.63096 81.3919 5.63096 81.4107 5.62511 81.4279V82.2175C5.63096 82.2347 5.63096 82.2535 5.62511 82.2707C5.62511 82.2707 5.59629 82.2998 5.56267 82.2998H4.53971C4.52767 82.3011 4.51552 82.299 4.50453 82.2939C4.49354 82.2888 4.48412 82.2808 4.47727 82.2707C4.473 82.2532 4.473 82.235 4.47727 82.2175V81.4279C4.473 81.4104 4.473 81.3921 4.47727 81.3746C4.48412 81.3646 4.49354 81.3566 4.50453 81.3515C4.51552 81.3463 4.52767 81.3443 4.53971 81.3456H5.56267C5.59629 81.3456 5.6155 81.3746 5.62511 81.3746Z" fill="#575CD4"/>
<path d="M6.64807 81.3746C6.65393 81.3919 6.65393 81.4107 6.64807 81.4279V82.2175C6.65393 82.2347 6.65393 82.2535 6.64807 82.2707C6.64807 82.2707 6.61926 82.2998 6.58564 82.2998H5.56267C5.55063 82.3011 5.53848 82.299 5.52749 82.2939C5.5165 82.2888 5.50709 82.2808 5.50024 82.2707C5.49596 82.2532 5.49596 82.235 5.50024 82.2175V81.4279C5.49596 81.4104 5.49596 81.3921 5.50024 81.3746C5.50709 81.3646 5.5165 81.3566 5.52749 81.3515C5.53848 81.3463 5.55063 81.3443 5.56267 81.3456H6.58564C6.61926 81.3456 6.63847 81.3746 6.64807 81.3746Z" fill="#575CD4"/>
<path d="M7.67585 81.3746C7.68012 81.3921 7.68012 81.4104 7.67585 81.4279V82.2175C7.68012 82.235 7.68012 82.2532 7.67585 82.2707C7.66792 82.2808 7.65762 82.2888 7.64588 82.2939C7.63414 82.2989 7.62133 82.301 7.60861 82.2998H6.58564C6.57361 82.3011 6.56145 82.299 6.55046 82.2939C6.53948 82.2888 6.53006 82.2808 6.52321 82.2707C6.51894 82.2532 6.51894 82.235 6.52321 82.2175V81.4279C6.51894 81.4104 6.51894 81.3921 6.52321 81.3746C6.53006 81.3646 6.53948 81.3566 6.55046 81.3515C6.56145 81.3463 6.57361 81.3443 6.58564 81.3456H7.60861C7.62133 81.3444 7.63414 81.3465 7.64588 81.3515C7.65762 81.3566 7.66792 81.3645 7.67585 81.3746Z" fill="#575CD4"/>
<path d="M8.69881 81.3746C8.70308 81.3921 8.70308 81.4104 8.69881 81.4279V82.2174C8.70308 82.2349 8.70308 82.2532 8.69881 82.2707C8.69088 82.2808 8.68058 82.2887 8.66884 82.2938C8.6571 82.2989 8.64429 82.3009 8.63157 82.2998H7.60861C7.59662 82.3005 7.58464 82.2983 7.57373 82.2932C7.56283 82.2881 7.55335 82.2804 7.54617 82.2707C7.5419 82.2532 7.5419 82.2349 7.54617 82.2174V81.4279C7.5419 81.4104 7.5419 81.3921 7.54617 81.3746C7.55335 81.3649 7.56283 81.3571 7.57373 81.3521C7.58464 81.347 7.59662 81.3447 7.60861 81.3455H8.63157C8.64429 81.3444 8.6571 81.3464 8.66884 81.3515C8.68058 81.3566 8.69088 81.3645 8.69881 81.3746Z" fill="#575CD4"/>
<path d="M9.72177 81.3747C9.72605 81.3922 9.72605 81.4105 9.72177 81.428V82.2175C9.72605 82.235 9.72605 82.2533 9.72177 82.2708C9.71459 82.2805 9.70512 82.2882 9.69422 82.2933C9.68331 82.2984 9.67132 82.3006 9.65934 82.2998H8.63157C8.61959 82.3006 8.6076 82.2984 8.5967 82.2933C8.58579 82.2882 8.57632 82.2805 8.56914 82.2708C8.56486 82.2533 8.56486 82.235 8.56914 82.2175V81.428C8.56486 81.4105 8.56486 81.3922 8.56914 81.3747C8.57632 81.365 8.58579 81.3572 8.5967 81.3521C8.6076 81.3471 8.61959 81.3448 8.63157 81.3456H9.65934C9.67132 81.3448 9.68331 81.3471 9.69422 81.3521C9.70512 81.3572 9.71459 81.365 9.72177 81.3747Z" fill="#575CD4"/>
<path d="M10.7447 81.3746C10.749 81.3921 10.749 81.4104 10.7447 81.4279V82.2175C10.749 82.235 10.749 82.2532 10.7447 82.2707C10.7379 82.2808 10.7285 82.2888 10.7175 82.2939C10.7065 82.299 10.6943 82.3011 10.6823 82.2998H9.65934C9.64662 82.301 9.63381 82.2989 9.62207 82.2939C9.61033 82.2888 9.60003 82.2808 9.5921 82.2707C9.58783 82.2532 9.58783 82.235 9.5921 82.2175V81.4279C9.58783 81.4104 9.58783 81.3921 9.5921 81.3746C9.60003 81.3645 9.61033 81.3566 9.62207 81.3515C9.63381 81.3465 9.64662 81.3444 9.65934 81.3456H10.6823C10.6943 81.3443 10.7065 81.3463 10.7175 81.3515C10.7285 81.3566 10.7379 81.3646 10.7447 81.3746Z" fill="#575CD4"/>
<path d="M11.7773 81.3747C11.7816 81.3922 11.7816 81.4105 11.7773 81.4279V82.2175C11.7816 82.235 11.7816 82.2533 11.7773 82.2708C11.7705 82.2808 11.761 82.2888 11.7501 82.2939C11.7391 82.2991 11.7269 82.3011 11.7149 82.2998H10.6823C10.6696 82.301 10.6568 82.299 10.645 82.2939C10.6333 82.2888 10.623 82.2809 10.6151 82.2708C10.6108 82.2533 10.6108 82.235 10.6151 82.2175V81.4279C10.6108 81.4105 10.6108 81.3922 10.6151 81.3747C10.623 81.3646 10.6333 81.3566 10.645 81.3515C10.6568 81.3465 10.6696 81.3444 10.6823 81.3456H11.7053C11.7188 81.3424 11.733 81.3434 11.7459 81.3486C11.7588 81.3538 11.7698 81.3629 11.7773 81.3747Z" fill="#575CD4"/>
<path d="M12.7907 81.3748C12.7949 81.3923 12.7949 81.4105 12.7907 81.428V82.2176C12.7949 82.2351 12.7949 82.2534 12.7907 82.2709C12.7838 82.2809 12.7744 82.2889 12.7634 82.294C12.7524 82.2992 12.7403 82.3012 12.7282 82.2999H11.7053C11.6717 82.2999 11.6524 82.2999 11.6428 82.2709C11.637 82.2536 11.637 82.2348 11.6428 82.2176V81.428C11.637 81.4108 11.637 81.392 11.6428 81.3748C11.6428 81.3748 11.6717 81.3457 11.7053 81.3457H12.7378C12.7483 81.3461 12.7585 81.3489 12.7677 81.3539C12.7768 81.359 12.7847 81.3661 12.7907 81.3748Z" fill="#575CD4"/>
<path d="M13.8136 81.3748C13.8179 81.3923 13.8179 81.4105 13.8136 81.428V82.2176C13.8179 82.2351 13.8179 82.2534 13.8136 82.2709C13.8068 82.2809 13.7974 82.2889 13.7864 82.294C13.7754 82.2992 13.7632 82.3012 13.7512 82.2999H12.7378C12.7042 82.2999 12.685 82.2999 12.6754 82.2709C12.6695 82.2536 12.6695 82.2348 12.6754 82.2176V81.428C12.6695 81.4108 12.6695 81.392 12.6754 81.3748C12.6754 81.3748 12.7042 81.3457 12.7378 81.3457H13.7608C13.7712 81.3461 13.7814 81.3489 13.7906 81.3539C13.7998 81.359 13.8077 81.3661 13.8136 81.3748Z" fill="#575CD4"/>
<path d="M14.8366 81.3746C14.8409 81.3921 14.8409 81.4104 14.8366 81.4279V82.2175C14.8409 82.235 14.8409 82.2532 14.8366 82.2707C14.8297 82.2808 14.8203 82.2888 14.8093 82.2939C14.7984 82.299 14.7862 82.3011 14.7742 82.2998H13.7512C13.7176 82.2998 13.6984 82.2998 13.6888 82.2707C13.6829 82.2535 13.6829 82.2347 13.6888 82.2175V81.4279C13.6829 81.4107 13.6829 81.3919 13.6888 81.3746C13.6888 81.3746 13.7176 81.3456 13.7512 81.3456H14.7742C14.7862 81.3443 14.7984 81.3463 14.8093 81.3515C14.8203 81.3566 14.8297 81.3646 14.8366 81.3746Z" fill="#575CD4"/>
<path d="M15.8596 81.3746C15.8638 81.3921 15.8638 81.4104 15.8596 81.4279V82.2175C15.8638 82.235 15.8638 82.2532 15.8596 82.2707C15.8527 82.2808 15.8433 82.2888 15.8323 82.2939C15.8213 82.299 15.8092 82.3011 15.7971 82.2998H14.7742C14.7405 82.2998 14.7213 82.2998 14.7117 82.2707C14.7059 82.2535 14.7059 82.2347 14.7117 82.2175V81.4279C14.7059 81.4107 14.7059 81.3919 14.7117 81.3746C14.7117 81.3746 14.7405 81.3456 14.7742 81.3456H15.7971C15.8092 81.3443 15.8213 81.3463 15.8323 81.3515C15.8433 81.3566 15.8527 81.3646 15.8596 81.3746Z" fill="#575CD4"/>
<path d="M16.8825 81.3746C16.8868 81.3921 16.8868 81.4104 16.8825 81.4279V82.2175C16.8868 82.235 16.8868 82.2532 16.8825 82.2707C16.8757 82.2808 16.8663 82.2888 16.8553 82.2939C16.8443 82.299 16.8321 82.3011 16.8201 82.2998H15.7971C15.7635 82.2998 15.7443 82.2998 15.7347 82.2707C15.7308 82.2532 15.7308 82.235 15.7347 82.2175V81.4279C15.7308 81.4104 15.7308 81.3922 15.7347 81.3746C15.7347 81.3746 15.7635 81.3456 15.7971 81.3456H16.8201C16.8321 81.3443 16.8443 81.3463 16.8553 81.3515C16.8663 81.3566 16.8757 81.3646 16.8825 81.3746Z" fill="#575CD4"/>
<path d="M17.9055 81.3746C17.9098 81.3921 17.9098 81.4104 17.9055 81.4279V82.2175C17.9098 82.235 17.9098 82.2532 17.9055 82.2707C17.8986 82.2808 17.8892 82.2888 17.8782 82.2939C17.8672 82.299 17.8551 82.3011 17.8431 82.2998H16.8201C16.7865 82.2998 16.7673 82.2998 16.7577 82.2707C16.7537 82.2532 16.7537 82.235 16.7577 82.2175V81.4279C16.7537 81.4104 16.7537 81.3922 16.7577 81.3746C16.7577 81.3746 16.7865 81.3456 16.8201 81.3456H17.8431C17.8551 81.3443 17.8672 81.3463 17.8782 81.3515C17.8892 81.3566 17.8986 81.3646 17.9055 81.3746Z" fill="#575CD4"/>
<path d="M18.9285 81.3746C18.9327 81.3921 18.9327 81.4104 18.9285 81.4279V82.2175C18.9327 82.235 18.9327 82.2532 18.9285 82.2707C18.9216 82.2808 18.9122 82.2888 18.9012 82.2939C18.8902 82.299 18.8781 82.3011 18.866 82.2998H17.8431C17.8094 82.2998 17.7902 82.2998 17.7806 82.2707C17.7767 82.2532 17.7767 82.235 17.7806 82.2175V81.4279C17.7767 81.4104 17.7767 81.3922 17.7806 81.3746C17.7806 81.3746 17.8094 81.3456 17.8431 81.3456H18.866C18.8781 81.3443 18.8902 81.3463 18.9012 81.3515C18.9122 81.3566 18.9216 81.3646 18.9285 81.3746Z" fill="#575CD4"/>
<path d="M19.9418 81.3748C19.9461 81.3923 19.9461 81.4105 19.9418 81.428V82.2176C19.9461 82.2351 19.9461 82.2534 19.9418 82.2709C19.9418 82.2709 19.913 82.2999 19.8794 82.2999H18.866C18.8324 82.2999 18.8132 82.2999 18.8036 82.2709C18.7993 82.2534 18.7993 82.2351 18.8036 82.2176V81.428C18.7993 81.4105 18.7993 81.3923 18.8036 81.3748C18.8036 81.3748 18.8324 81.3457 18.866 81.3457H19.889C19.9418 81.3457 19.9418 81.3748 19.9418 81.3748Z" fill="#575CD4"/>
<path d="M20.9744 81.3748C20.9787 81.3923 20.9787 81.4105 20.9744 81.428V82.2176C20.9787 82.2351 20.9787 82.2534 20.9744 82.2709C20.9744 82.2709 20.9456 82.2999 20.912 82.2999H19.889C19.8554 82.2999 19.8362 82.2999 19.8266 82.2709C19.8223 82.2534 19.8223 82.2351 19.8266 82.2176V81.428C19.8223 81.4105 19.8223 81.3923 19.8266 81.3748C19.8266 81.3748 19.8554 81.3457 19.889 81.3457H20.9023C20.9456 81.3457 20.9648 81.3748 20.9744 81.3748Z" fill="#575CD4"/>
<path d="M21.9974 81.3748C22.0016 81.3923 22.0016 81.4105 21.9974 81.428V82.2176C22.0016 82.2351 22.0016 82.2534 21.9974 82.2709C21.9974 82.2709 21.9685 82.2999 21.9349 82.2999H20.9024C20.8687 82.2999 20.8495 82.2999 20.8399 82.2709C20.8356 82.2534 20.8356 82.2351 20.8399 82.2176V81.428C20.8356 81.4105 20.8356 81.3923 20.8399 81.3748C20.8399 81.3748 20.8687 81.3457 20.9024 81.3457H21.9253C21.9685 81.3457 21.9878 81.3748 21.9974 81.3748Z" fill="#575CD4"/>
<path d="M23.0203 81.3748C23.0246 81.3923 23.0246 81.4105 23.0203 81.428V82.2176C23.0246 82.2351 23.0246 82.2534 23.0203 82.2709C23.0203 82.2709 22.9915 82.2999 22.9579 82.2999H21.9349C21.9013 82.2999 21.8821 82.2999 21.8725 82.2709C21.8682 82.2534 21.8682 82.2351 21.8725 82.2176V81.428C21.8682 81.4105 21.8682 81.3923 21.8725 81.3748C21.8725 81.3748 21.9013 81.3457 21.9349 81.3457H22.9579C22.9915 81.3457 23.0107 81.3748 23.0203 81.3748Z" fill="#575CD4"/>
<path d="M24.0433 81.3746C24.0472 81.3922 24.0472 81.4104 24.0433 81.4279V82.2175C24.0472 82.235 24.0472 82.2532 24.0433 82.2707C24.0433 82.2707 24.0145 82.2998 23.9808 82.2998H22.9579C22.9458 82.3011 22.9337 82.299 22.9227 82.2939C22.9117 82.2888 22.9023 82.2808 22.8954 82.2707C22.8912 82.2532 22.8912 82.235 22.8954 82.2175V81.4279C22.8912 81.4104 22.8912 81.3921 22.8954 81.3746C22.9023 81.3646 22.9117 81.3566 22.9227 81.3515C22.9337 81.3463 22.9458 81.3443 22.9579 81.3456H23.9808C24.0145 81.3456 24.0337 81.3746 24.0433 81.3746Z" fill="#575CD4"/>
<path d="M25.0662 81.3746C25.0702 81.3922 25.0702 81.4104 25.0662 81.4279V82.2175C25.0702 82.235 25.0702 82.2532 25.0662 82.2707C25.0662 82.2707 25.0374 82.2998 25.0038 82.2998H23.9808C23.9688 82.3011 23.9567 82.299 23.9457 82.2939C23.9347 82.2888 23.9253 82.2808 23.9184 82.2707C23.9141 82.2532 23.9141 82.235 23.9184 82.2175V81.4279C23.9141 81.4104 23.9141 81.3921 23.9184 81.3746C23.9253 81.3646 23.9347 81.3566 23.9457 81.3515C23.9567 81.3463 23.9688 81.3443 23.9808 81.3456H25.0038C25.0374 81.3456 25.0566 81.3746 25.0662 81.3746Z" fill="#575CD4"/>
<path d="M26.0892 81.3746C26.0951 81.3919 26.0951 81.4107 26.0892 81.4279V82.2175C26.0951 82.2347 26.0951 82.2535 26.0892 82.2707C26.0892 82.2707 26.0604 82.2998 26.0268 82.2998H25.0038C24.9918 82.3011 24.9796 82.299 24.9686 82.2939C24.9576 82.2888 24.9482 82.2808 24.9414 82.2707C24.9371 82.2532 24.9371 82.235 24.9414 82.2175V81.4279C24.9371 81.4104 24.9371 81.3921 24.9414 81.3746C24.9482 81.3646 24.9576 81.3566 24.9686 81.3515C24.9796 81.3463 24.9918 81.3443 25.0038 81.3456H26.0268C26.0604 81.3456 26.0796 81.3746 26.0892 81.3746Z" fill="#575CD4"/>
<path d="M27.1122 81.3746C27.118 81.3919 27.118 81.4107 27.1122 81.4279V82.2175C27.118 82.2347 27.118 82.2535 27.1122 82.2707C27.1122 82.2707 27.0834 82.2998 27.0498 82.2998H26.0268C26.0148 82.3011 26.0026 82.299 25.9916 82.2939C25.9806 82.2888 25.9712 82.2808 25.9644 82.2707C25.9601 82.2532 25.9601 82.235 25.9644 82.2175V81.4279C25.9601 81.4104 25.9601 81.3921 25.9644 81.3746C25.9712 81.3646 25.9806 81.3566 25.9916 81.3515C26.0026 81.3463 26.0148 81.3443 26.0268 81.3456H27.0498C27.0834 81.3456 27.1026 81.3746 27.1122 81.3746Z" fill="#575CD4"/>
<path d="M28.1351 81.3746C28.141 81.3919 28.141 81.4107 28.1351 81.4279V82.2175C28.141 82.2347 28.141 82.2535 28.1351 82.2707C28.1351 82.2707 28.1063 82.2998 28.0727 82.2998H27.0497C27.0377 82.3011 27.0255 82.299 27.0146 82.2939C27.0036 82.2888 26.9942 82.2808 26.9873 82.2707C26.983 82.2532 26.983 82.235 26.9873 82.2175V81.4279C26.983 81.4104 26.983 81.3921 26.9873 81.3746C26.9942 81.3646 27.0036 81.3566 27.0146 81.3515C27.0255 81.3463 27.0377 81.3443 27.0497 81.3456H28.0727C28.1063 81.3456 28.1063 81.3746 28.1351 81.3746Z" fill="#575CD4"/>
<path d="M29.1629 81.3746C29.1672 81.3921 29.1672 81.4104 29.1629 81.4279V82.2175C29.1672 82.235 29.1672 82.2532 29.1629 82.2707C29.155 82.2808 29.1447 82.2888 29.133 82.2939C29.1212 82.2989 29.1084 82.301 29.0957 82.2998H28.0727C28.0607 82.3011 28.0485 82.299 28.0375 82.2939C28.0266 82.2888 28.0171 82.2808 28.0103 82.2707C28.006 82.2532 28.006 82.235 28.0103 82.2175V81.4279C28.006 81.4104 28.006 81.3921 28.0103 81.3746C28.0171 81.3646 28.0266 81.3566 28.0375 81.3515C28.0485 81.3463 28.0607 81.3443 28.0727 81.3456H29.0957C29.1084 81.3444 29.1212 81.3465 29.133 81.3515C29.1447 81.3566 29.155 81.3645 29.1629 81.3746Z" fill="#575CD4"/>
<path d="M30.1811 81.3746C30.1869 81.3919 30.1869 81.4107 30.1811 81.4279V82.2175C30.1869 82.2347 30.1869 82.2535 30.1811 82.2707C30.1811 82.2707 30.1523 82.2998 30.1186 82.2998H29.0957C29.0836 82.3011 29.0715 82.299 29.0605 82.2939C29.0495 82.2888 29.0401 82.2808 29.0332 82.2707C29.029 82.2532 29.029 82.235 29.0332 82.2175V81.4279C29.029 81.4104 29.029 81.3921 29.0332 81.3746C29.0401 81.3646 29.0495 81.3566 29.0605 81.3515C29.0715 81.3463 29.0836 81.3443 29.0957 81.3456H30.1186C30.1523 81.3456 30.1715 81.3746 30.1811 81.3746Z" fill="#575CD4"/>
<path d="M31.2088 81.3746C31.2131 81.3921 31.2131 81.4104 31.2088 81.4279V82.2174C31.2131 82.2349 31.2131 82.2532 31.2088 82.2707C31.2009 82.2808 31.1906 82.2887 31.1789 82.2938C31.1671 82.2989 31.1543 82.3009 31.1416 82.2998H30.1186C30.1067 82.3005 30.0947 82.2983 30.0838 82.2932C30.0729 82.2881 30.0634 82.2804 30.0562 82.2707C30.0519 82.2532 30.0519 82.2349 30.0562 82.2174V81.4279C30.0519 81.4104 30.0519 81.3921 30.0562 81.3746C30.0634 81.3649 30.0729 81.3571 30.0838 81.3521C30.0947 81.347 30.1067 81.3447 30.1186 81.3455H31.1416C31.1543 81.3444 31.1671 81.3464 31.1789 81.3515C31.1906 81.3566 31.2009 81.3645 31.2088 81.3746Z" fill="#575CD4"/>
<path d="M32.2318 81.3746C32.2361 81.3921 32.2361 81.4104 32.2318 81.4279V82.2174C32.2361 82.2349 32.2361 82.2532 32.2318 82.2707C32.2239 82.2808 32.2136 82.2887 32.2018 82.2938C32.1901 82.2989 32.1773 82.3009 32.1646 82.2998H31.1416C31.1296 82.3005 31.1176 82.2983 31.1067 82.2932C31.0958 82.2881 31.0864 82.2804 31.0792 82.2707C31.0749 82.2532 31.0749 82.2349 31.0792 82.2174V81.4279C31.0749 81.4104 31.0749 81.3921 31.0792 81.3746C31.0864 81.3649 31.0958 81.3571 31.1067 81.3521C31.1176 81.347 31.1296 81.3447 31.1416 81.3455H32.1646C32.1773 81.3444 32.1901 81.3464 32.2018 81.3515C32.2136 81.3566 32.2239 81.3645 32.2318 81.3746Z" fill="#575CD4"/>
<path d="M33.2548 81.3747C33.2591 81.3922 33.2591 81.4105 33.2548 81.428V82.2175C33.2591 82.235 33.2591 82.2533 33.2548 82.2708C33.2476 82.2805 33.2381 82.2882 33.2272 82.2933C33.2163 82.2984 33.2043 82.3006 33.1923 82.2998H32.1646C32.1526 82.3006 32.1406 82.2984 32.1297 82.2933C32.1188 82.2882 32.1093 82.2805 32.1021 82.2708C32.0979 82.2533 32.0979 82.235 32.1021 82.2175V81.428C32.0979 81.4105 32.0979 81.3922 32.1021 81.3747C32.1093 81.365 32.1188 81.3572 32.1297 81.3521C32.1406 81.3471 32.1526 81.3448 32.1646 81.3456H33.1923C33.2043 81.3448 33.2163 81.3471 33.2272 81.3521C33.2381 81.3572 33.2476 81.365 33.2548 81.3747Z" fill="#575CD4"/>
<path d="M34.2777 81.3746C34.282 81.3921 34.282 81.4104 34.2777 81.4279V82.2175C34.282 82.235 34.282 82.2532 34.2777 82.2707C34.2709 82.2808 34.2615 82.2888 34.2505 82.2939C34.2395 82.299 34.2273 82.3011 34.2153 82.2998H33.1923C33.1796 82.301 33.1668 82.2989 33.1551 82.2939C33.1433 82.2888 33.133 82.2808 33.1251 82.2707C33.1208 82.2532 33.1208 82.235 33.1251 82.2175V81.4279C33.1208 81.4104 33.1208 81.3921 33.1251 81.3746C33.133 81.3645 33.1433 81.3566 33.1551 81.3515C33.1668 81.3465 33.1796 81.3444 33.1923 81.3456H34.2153C34.2273 81.3443 34.2395 81.3463 34.2505 81.3515C34.2615 81.3566 34.2709 81.3646 34.2777 81.3746Z" fill="#575CD4"/>
<path d="M35.3103 81.3747C35.3146 81.3922 35.3146 81.4105 35.3103 81.4279V82.2175C35.3146 82.235 35.3146 82.2533 35.3103 82.2708C35.3035 82.2808 35.294 82.2888 35.2831 82.2939C35.2721 82.2991 35.2599 82.3011 35.2479 82.2998H34.2153C34.2026 82.301 34.1898 82.299 34.178 82.2939C34.1663 82.2888 34.156 82.2809 34.1481 82.2708C34.1438 82.2533 34.1438 82.235 34.1481 82.2175V81.4279C34.1438 81.4105 34.1438 81.3922 34.1481 81.3747C34.156 81.3646 34.1663 81.3566 34.178 81.3515C34.1898 81.3465 34.2026 81.3444 34.2153 81.3456H35.2383C35.2518 81.3424 35.266 81.3434 35.2789 81.3486C35.2918 81.3538 35.3028 81.3629 35.3103 81.3747Z" fill="#575CD4"/>
<path d="M36.3237 81.3748C36.3279 81.3923 36.3279 81.4105 36.3237 81.428V82.2176C36.3279 82.2351 36.3279 82.2534 36.3237 82.2709C36.3168 82.2809 36.3074 82.2889 36.2964 82.294C36.2854 82.2992 36.2733 82.3012 36.2612 82.2999H35.2383C35.2047 82.2999 35.1854 82.2999 35.1758 82.2709C35.17 82.2536 35.17 82.2348 35.1758 82.2176V81.428C35.17 81.4108 35.17 81.392 35.1758 81.3748C35.1758 81.3748 35.2047 81.3457 35.2383 81.3457H36.2708C36.2813 81.3461 36.2915 81.3489 36.3007 81.3539C36.3098 81.359 36.3177 81.3661 36.3237 81.3748Z" fill="#575CD4"/>
<path d="M37.3466 81.3748C37.3509 81.3923 37.3509 81.4105 37.3466 81.428V82.2176C37.3509 82.2351 37.3509 82.2534 37.3466 82.2709C37.3398 82.2809 37.3304 82.2889 37.3194 82.294C37.3084 82.2992 37.2962 82.3012 37.2842 82.2999H36.2708C36.2372 82.2999 36.218 82.2999 36.2084 82.2709C36.2026 82.2536 36.2026 82.2348 36.2084 82.2176V81.428C36.2026 81.4108 36.2026 81.392 36.2084 81.3748C36.2084 81.3748 36.2372 81.3457 36.2708 81.3457H37.2938C37.3043 81.3461 37.3145 81.3489 37.3236 81.3539C37.3328 81.359 37.3407 81.3661 37.3466 81.3748Z" fill="#575CD4"/>
<path d="M38.3696 81.3746C38.3739 81.3921 38.3739 81.4104 38.3696 81.4279V82.2175C38.3739 82.235 38.3739 82.2532 38.3696 82.2707C38.3628 82.2808 38.3533 82.2888 38.3423 82.2939C38.3314 82.299 38.3192 82.3011 38.3072 82.2998H37.2842C37.2506 82.2998 37.2314 82.2998 37.2218 82.2707C37.2159 82.2535 37.2159 82.2347 37.2218 82.2175V81.4279C37.2159 81.4107 37.2159 81.3919 37.2218 81.3746C37.2218 81.3746 37.2506 81.3456 37.2842 81.3456H38.3072C38.3192 81.3443 38.3314 81.3463 38.3423 81.3515C38.3533 81.3566 38.3628 81.3646 38.3696 81.3746Z" fill="#575CD4"/>
<path d="M39.3926 81.3746C39.3968 81.3921 39.3968 81.4104 39.3926 81.4279V82.2175C39.3968 82.235 39.3968 82.2532 39.3926 82.2707C39.3857 82.2808 39.3763 82.2888 39.3653 82.2939C39.3543 82.299 39.3422 82.3011 39.3301 82.2998H38.3072C38.2735 82.2998 38.2543 82.2998 38.2447 82.2707C38.2389 82.2535 38.2389 82.2347 38.2447 82.2175V81.4279C38.2389 81.4107 38.2389 81.3919 38.2447 81.3746C38.2447 81.3746 38.2735 81.3456 38.3072 81.3456H39.3301C39.3422 81.3443 39.3543 81.3463 39.3653 81.3515C39.3763 81.3566 39.3857 81.3646 39.3926 81.3746Z" fill="#575CD4"/>
<path d="M40.4155 81.3746C40.4198 81.3921 40.4198 81.4104 40.4155 81.4279V82.2175C40.4198 82.235 40.4198 82.2532 40.4155 82.2707C40.4087 82.2808 40.3993 82.2888 40.3883 82.2939C40.3773 82.299 40.3651 82.3011 40.3531 82.2998H39.3301C39.2965 82.2998 39.2773 82.2998 39.2677 82.2707C39.2638 82.2532 39.2638 82.235 39.2677 82.2175V81.4279C39.2638 81.4104 39.2638 81.3922 39.2677 81.3746C39.2677 81.3746 39.2965 81.3456 39.3301 81.3456H40.3531C40.3651 81.3443 40.3773 81.3463 40.3883 81.3515C40.3993 81.3566 40.4087 81.3646 40.4155 81.3746Z" fill="#575CD4"/>
<path d="M41.4385 81.3746C41.4428 81.3921 41.4428 81.4104 41.4385 81.4279V82.2175C41.4428 82.235 41.4428 82.2532 41.4385 82.2707C41.4316 82.2808 41.4222 82.2888 41.4112 82.2939C41.4002 82.299 41.3881 82.3011 41.3761 82.2998H40.3531C40.3195 82.2998 40.3003 82.2998 40.2907 82.2707C40.2867 82.2532 40.2867 82.235 40.2907 82.2175V81.4279C40.2867 81.4104 40.2867 81.3922 40.2907 81.3746C40.2907 81.3746 40.3195 81.3456 40.3531 81.3456H41.3761C41.3881 81.3443 41.4002 81.3463 41.4112 81.3515C41.4222 81.3566 41.4316 81.3646 41.4385 81.3746Z" fill="#575CD4"/>
<path d="M42.4615 81.3748C42.4657 81.3923 42.4657 81.4105 42.4615 81.428V82.2176C42.4657 82.2351 42.4657 82.2534 42.4615 82.2709C42.4615 82.2709 42.4326 82.2999 42.399 82.2999H41.3761C41.3424 82.2999 41.3232 82.2999 41.3136 82.2709C41.3094 82.2534 41.3094 82.2351 41.3136 82.2176V81.428C41.3094 81.4105 41.3094 81.3923 41.3136 81.3748C41.3136 81.3748 41.3424 81.3457 41.3761 81.3457H42.399C42.4326 81.3457 42.4519 81.3748 42.4615 81.3748Z" fill="#575CD4"/>
<path d="M43.4748 81.3748C43.4791 81.3923 43.4791 81.4105 43.4748 81.428V82.2176C43.4791 82.2351 43.4791 82.2534 43.4748 82.2709C43.4748 82.2709 43.446 82.2999 43.4124 82.2999H42.399C42.3654 82.2999 42.3462 82.2999 42.3366 82.2709C42.3323 82.2534 42.3323 82.2351 42.3366 82.2176V81.428C42.3323 81.4105 42.3323 81.3923 42.3366 81.3748C42.3366 81.3748 42.3654 81.3457 42.399 81.3457H43.422C43.4748 81.3457 43.4748 81.3748 43.4748 81.3748Z" fill="#575CD4"/>
<path d="M44.5074 81.3748C44.5117 81.3923 44.5117 81.4105 44.5074 81.428V82.2176C44.5117 82.2351 44.5117 82.2534 44.5074 82.2709C44.5074 82.2709 44.4786 82.2999 44.445 82.2999H43.422C43.3884 82.2999 43.3692 82.2999 43.3596 82.2709C43.3553 82.2534 43.3553 82.2351 43.3596 82.2176V81.428C43.3553 81.4105 43.3553 81.3923 43.3596 81.3748C43.3596 81.3748 43.3884 81.3457 43.422 81.3457H44.4354C44.4786 81.3457 44.4978 81.3748 44.5074 81.3748Z" fill="#575CD4"/>
<path d="M46.4189 81.0502C46.515 81.1554 46.634 81.2368 46.7664 81.288C46.8989 81.3393 47.0412 81.359 47.1825 81.3457C47.2161 81.3457 47.2353 81.3457 47.2449 81.3748C47.2508 81.392 47.2508 81.4108 47.2449 81.428V82.2176C47.2508 82.2348 47.2508 82.2536 47.2449 82.2709C47.2449 82.2709 47.2161 82.2999 47.1825 82.2999C46.9874 82.2942 46.7952 82.2514 46.6158 82.174C46.4091 82.0858 46.2227 81.9556 46.0683 81.7913C45.9279 81.9531 45.7529 82.0808 45.5566 82.1646C45.3603 82.2485 45.1478 82.2865 44.9348 82.2757H44.4354C44.4017 82.2757 44.3825 82.2757 44.3729 82.2466C44.3687 82.2291 44.3687 82.2109 44.3729 82.1934V81.4038C44.3687 81.3863 44.3687 81.368 44.3729 81.3505C44.3729 81.3505 44.4017 81.3215 44.4354 81.3215H44.5938C44.6964 81.322 44.7977 81.2997 44.8907 81.2562C44.9837 81.2126 45.066 81.1489 45.1317 81.0696C45.2879 80.8873 45.3687 80.6515 45.3575 80.4109V78.3377H46.4573V80.5852C46.4635 80.7412 46.4506 80.8974 46.4189 81.0502ZM45.3479 77.6887V76.686H46.4813V77.6887H45.3479Z" fill="#575CD4"/>
<path d="M49.1612 81.0501C49.2566 81.1562 49.3755 81.2382 49.5081 81.2895C49.6407 81.3409 49.7835 81.3601 49.9248 81.3456C49.9368 81.3443 49.949 81.3464 49.96 81.3515C49.971 81.3566 49.9804 81.3646 49.9872 81.3747C49.9915 81.3922 49.9915 81.4105 49.9872 81.4279V82.2175C49.9915 82.235 49.9915 82.2533 49.9872 82.2708C49.9804 82.2808 49.971 82.2888 49.96 82.2939C49.949 82.2991 49.9368 82.3011 49.9248 82.2998C49.7297 82.2945 49.5373 82.2518 49.3581 82.1739C49.1499 82.0858 48.9619 81.9556 48.8058 81.7912C48.6654 81.953 48.4904 82.0807 48.2941 82.1645C48.0978 82.2484 47.8853 82.2864 47.6723 82.2756H47.1921C47.18 82.2769 47.1679 82.2748 47.1569 82.2697C47.1459 82.2646 47.1365 82.2566 47.1296 82.2465C47.1254 82.229 47.1254 82.2108 47.1296 82.1933V81.4037C47.1254 81.3862 47.1254 81.3679 47.1296 81.3504C47.1365 81.3404 47.1459 81.3324 47.1569 81.3273C47.1679 81.3221 47.18 81.3201 47.1921 81.3214H47.3506C47.4532 81.3226 47.5548 81.3006 47.6479 81.257C47.7409 81.2134 47.8232 81.1494 47.8885 81.0695C48.0469 80.8885 48.128 80.6518 48.1142 80.4108V78.3376H49.2188V80.5851C49.2161 80.7418 49.1968 80.8977 49.1612 81.0501ZM48.0421 84V82.9973H49.1756V84H48.0421Z" fill="#575CD4"/>
<path d="M53.4019 76.2162C53.4254 76.3163 53.4383 76.4185 53.4403 76.5213C53.4474 76.609 53.4365 76.6973 53.4084 76.7806C53.3803 76.8639 53.3356 76.9405 53.2771 77.0057C53.2129 77.0655 53.137 77.1111 53.0542 77.1395C52.9715 77.1678 52.8838 77.1784 52.7968 77.1704C52.7292 77.1715 52.6626 77.1546 52.6035 77.1215C52.5445 77.0883 52.4952 77.04 52.4606 76.9815C52.419 77.086 52.3491 77.1767 52.2589 77.2431C52.1639 77.3119 52.0492 77.3476 51.9323 77.3448C51.8002 77.3493 51.6709 77.3064 51.5673 77.2237C51.4533 77.1274 51.3809 76.9902 51.3656 76.841L51.2791 76.3954L51.6634 76.3131L51.745 76.7442C51.7738 76.8895 51.8459 76.967 51.9611 76.967C52.0764 76.967 52.2013 76.8556 52.2013 76.6424C52.1948 76.5021 52.1755 76.3626 52.1436 76.2259L52.5374 76.1726L52.6143 76.5988C52.6431 76.7345 52.7151 76.7974 52.8304 76.7974C52.8608 76.8016 52.8918 76.7985 52.9208 76.7885C52.9498 76.7784 52.9761 76.7617 52.9975 76.7395C53.019 76.7174 53.035 76.6906 53.0444 76.6611C53.0537 76.6316 53.0561 76.6003 53.0513 76.5698C53.0469 76.39 53.0095 76.2126 52.9409 76.0467L53.3347 75.9595C53.3587 75.9885 53.3779 76.0806 53.4019 76.2162Z" fill="#EBC82A"/>
<path d="M53.4884 78.357C53.795 78.4904 54.0664 78.6945 54.2808 78.9528C54.4665 79.1793 54.5699 79.463 54.5738 79.7569C54.5693 80.0349 54.4931 80.307 54.3528 80.5464C54.2001 80.8205 53.9981 81.0636 53.7573 81.2633C54.0993 81.3121 54.4446 81.3332 54.7899 81.3262C54.8571 81.3262 54.8907 81.3553 54.8907 81.4134V82.1933C54.8907 82.2514 54.8571 82.2804 54.7899 82.2804C54.0367 82.2933 53.2858 82.1937 52.5614 81.985C51.6998 82.1937 50.8157 82.293 49.9296 82.2804C49.9179 82.282 49.9059 82.2809 49.8947 82.2771C49.8835 82.2733 49.8733 82.2669 49.865 82.2584C49.8566 82.25 49.8503 82.2397 49.8465 82.2284C49.8427 82.2171 49.8416 82.2051 49.8431 82.1933V81.4134C49.8416 81.4016 49.8427 81.3896 49.8465 81.3783C49.8503 81.3669 49.8566 81.3567 49.865 81.3482C49.8733 81.3398 49.8835 81.3334 49.8947 81.3296C49.9059 81.3258 49.9179 81.3246 49.9296 81.3262C50.3808 81.3358 50.832 81.3099 51.2791 81.2487C50.8787 80.755 50.5174 80.2303 50.1985 79.6794L50.4435 78.6476C50.7889 78.4949 51.1434 78.3638 51.5049 78.2553C51.808 78.1685 52.1215 78.1245 52.4366 78.1245C52.7998 78.1235 53.1588 78.2029 53.4884 78.357ZM51.1975 79.505C51.3585 79.8166 51.5465 80.1132 51.7594 80.3914C51.9655 80.6724 52.197 80.9334 52.451 81.1712C52.7205 81.0422 52.9646 80.865 53.1714 80.6481C53.3565 80.4728 53.4653 80.2308 53.474 79.9748C53.4746 79.8595 53.4453 79.746 53.3888 79.6457C53.3323 79.5454 53.2507 79.4618 53.1522 79.4033C52.9149 79.2589 52.6415 79.1866 52.3645 79.195C51.9584 79.2155 51.561 79.3211 51.1975 79.505Z" fill="#575CD4"/>
<path d="M54.8091 82.2998C54.7971 82.3006 54.7851 82.2983 54.7742 82.2933C54.7633 82.2882 54.7538 82.2804 54.7467 82.2707C54.7424 82.2532 54.7424 82.2349 54.7467 82.2174V81.4279C54.7424 81.4104 54.7424 81.3921 54.7467 81.3746C54.7538 81.3649 54.7633 81.3572 54.7742 81.3521C54.7851 81.347 54.7971 81.3448 54.8091 81.3456H55.5967V76.2161H56.6917V82.2998H54.8091Z" fill="#575CD4"/>
</svg>
